<?xml version="1.0" standalone="no"?><!DOCTYPE svg PUBLIC "-//W3C//DTD SVG 1.1//EN" "http://www.w3.org/Graphics/SVG/1.1/DTD/svg11.dtd"><svg t="1760664675674" class="icon" viewBox="0 0 1024 1024" version="1.1" xmlns="http://www.w3.org/2000/svg" p-id="7221" width="32" height="32" xmlns:xlink="http://www.w3.org/1999/xlink"><path d="M580.266667 768H204.8c-58.026667 0-102.4-44.373333-102.4-102.4v-341.333333c0-58.026667 44.373333-102.4 102.4-102.4h375.466667c58.026667 0 102.4 44.373333 102.4 102.4V477.866667l170.666666 122.88v-245.76l-47.786666 34.133333c-17.066667 10.24-37.546667 6.826667-47.786667-10.24-10.24-17.066667-6.826667-37.546667 10.24-47.786667l47.786667-34.133333c20.48-13.653333 47.786667-13.653333 71.68-3.413333 23.893333 10.24 37.546667 34.133333 37.546666 61.44v245.76c0 27.306667-13.653333 47.786667-37.546666 61.44-23.893333 10.24-51.2 10.24-71.68-6.826667l-170.666667-122.88c-17.066667-13.653333-27.306667-34.133333-27.306667-54.613333V324.266667c0-20.48-13.653333-34.133333-34.133333-34.133334H204.8c-20.48 0-34.133333 13.653333-34.133333 34.133334v341.333333c0 20.48 13.653333 34.133333 34.133333 34.133333h375.466667c20.48 0 34.133333-13.653333 34.133333-34.133333s13.653333-34.133333 34.133333-34.133333 34.133333 13.653333 34.133334 34.133333c0 54.613333-44.373333 102.4-102.4 102.4z" fill="#16baa9" p-id="7222"></path></svg>