<?xml version="1.0" standalone="no"?><!DOCTYPE svg PUBLIC "-//W3C//DTD SVG 1.1//EN" "http://www.w3.org/Graphics/SVG/1.1/DTD/svg11.dtd"><svg t="1762428159966" class="icon" viewBox="0 0 1024 1024" version="1.1" xmlns="http://www.w3.org/2000/svg" p-id="13091" xmlns:xlink="http://www.w3.org/1999/xlink" width="32" height="32"><path d="M398.222222 768c-96.711111 0-170.666667-73.955556-170.666666-170.666667v-56.888889H0v-113.777777h227.555556c62.577778 0 113.777778 51.2 113.777777 113.777777v56.888889c0 34.133333 22.755556 56.888889 56.888889 56.888889s56.888889-22.755556 56.888889-56.888889v-170.666666c0-96.711111 73.955556-170.666667 170.666667-170.666667s170.666667 73.955556 170.666666 170.666667v56.888889h227.555556v113.777777h-227.555556c-62.577778 0-113.777778-51.2-113.777777-113.777777v-56.888889c0-34.133333-22.755556-56.888889-56.888889-56.888889s-56.888889 22.755556-56.888889 56.888889v170.666666c0 96.711111-73.955556 170.666667-170.666667 170.666667z" fill="#16baaa" p-id="13092"></path></svg>